<svg width="44" height="44" fill="none" xmlns="http://www.w3.org/2000/svg"><circle cx="22" cy="22" r="22" fill="#E8EDF5"/><mask id="a" style="mask-type:alpha" maskUnits="userSpaceOnUse" x="0" y="0" width="44" height="44"><circle cx="22" cy="22" r="22" fill="#F4F5F9"/></mask><g mask="url(#a)" fill-rule="evenodd" clip-rule="evenodd" fill="#8B8F96"><path d="M5.058 40.24c4.365-4.63 10.334-7.515 16.943-7.515 6.609 0 12.578 2.885 16.942 7.514a1.741 1.741 0 01-1.267 2.937L22 48.4 6.326 43.177a1.742 1.742 0 01-1.268-2.937zm8.463-20.577c0-5.29 3.19-8.48 8.48-8.48 5.29 0 8.479 3.19 8.479 8.48 0 5.29-3.189 9.58-8.48 9.58-5.29 0-8.479-4.29-8.479-9.58z"/></g></svg>