<svg width="48" height="48" fill="none" xmlns="http://www.w3.org/2000/svg"><path d="M36.728 11.272c7.03 7.03 7.03 18.427 0 25.456-7.03 7.03-18.427 7.03-25.456 0-7.03-7.03-7.03-18.427 0-25.456 7.03-7.03 18.427-7.03 25.456 0" stroke="#449753" stroke-width="2" stroke-linecap="round" stroke-linejoin="round"/><path d="M36.728 11.272c7.03 7.03 7.03 18.427 0 25.456-7.03 7.03-18.427 7.03-25.456 0-7.03-7.03-7.03-18.427 0-25.456 7.03-7.03 18.427-7.03 25.456 0" stroke="#009A4B" stroke-width="2" stroke-linecap="round" stroke-linejoin="round"/><path d="M36.728 11.272c7.03 7.03 7.03 18.427 0 25.456-7.03 7.03-18.427 7.03-25.456 0-7.03-7.03-7.03-18.427 0-25.456 7.03-7.03 18.427-7.03 25.456 0" stroke="#0762EA" stroke-width="2" stroke-linecap="round" stroke-linejoin="round"/><path d="M24 14v10" stroke="#449753" stroke-width="2" stroke-linecap="round" stroke-linejoin="round"/><path d="M24 14v10" stroke="#009A4B" stroke-width="2" stroke-linecap="round" stroke-linejoin="round"/><path d="M24 14v10" stroke="#0762EA" stroke-width="2" stroke-linecap="round" stroke-linejoin="round"/><path d="M31.068 16.932c3.904 3.904 3.904 10.234 0 14.138s-10.234 3.904-14.138 0-3.904-10.234 0-14.138" stroke="#449753" stroke-width="2" stroke-linecap="round" stroke-linejoin="round"/><path d="M31.068 16.932c3.904 3.904 3.904 10.234 0 14.138s-10.234 3.904-14.138 0-3.904-10.234 0-14.138" stroke="#009A4B" stroke-width="2" stroke-linecap="round" stroke-linejoin="round"/><path d="M31.068 16.932c3.904 3.904 3.904 10.234 0 14.138s-10.234 3.904-14.138 0-3.904-10.234 0-14.138" stroke="#0762EA" stroke-width="2" stroke-linecap="round" stroke-linejoin="round"/></svg>