<svg width="48" height="48" fill="none" xmlns="http://www.w3.org/2000/svg"><path clip-rule="evenodd" d="M7 28l-3.578 7.156A4 4 0 003 36.944v2.046a3 3 0 002.979 3L7.4 42h33.2l1.41-.005a3 3 0 002.99-3v-2.05a4 4 0 00-.422-1.79L41 28V10a4 4 0 00-4-4H11a4 4 0 00-4 4v18z" stroke="#449753" stroke-width="2" stroke-linecap="round" stroke-linejoin="round"/><path clip-rule="evenodd" d="M7 28l-3.578 7.156A4 4 0 003 36.944v2.046a3 3 0 002.979 3L7.4 42h33.2l1.41-.005a3 3 0 002.99-3v-2.05a4 4 0 00-.422-1.79L41 28V10a4 4 0 00-4-4H11a4 4 0 00-4 4v18z" stroke="#009A4B" stroke-width="2" stroke-linecap="round" stroke-linejoin="round"/><path clip-rule="evenodd" d="M7 28l-3.578 7.156A4 4 0 003 36.944v2.046a3 3 0 002.979 3L7.4 42h33.2l1.41-.005a3 3 0 002.99-3v-2.05a4 4 0 00-.422-1.79L41 28V10a4 4 0 00-4-4H11a4 4 0 00-4 4v18z" stroke="#0762EA" stroke-width="2" stroke-linecap="round" stroke-linejoin="round"/><path d="M6.25 29.5h35.5" stroke="#449753" stroke-width="2" stroke-linecap="round" stroke-linejoin="round"/><path d="M6.25 29.5h35.5" stroke="#009A4B" stroke-width="2" stroke-linecap="round" stroke-linejoin="round"/><path d="M6.25 29.5h35.5" stroke="#0762EA" stroke-width="2" stroke-linecap="round" stroke-linejoin="round"/><path d="M19.441 36h9.117" stroke="#449753" stroke-width="2" stroke-linecap="round" stroke-linejoin="round"/><path d="M19.441 36h9.117" stroke="#009A4B" stroke-width="2" stroke-linecap="round" stroke-linejoin="round"/><path d="M19.441 36h9.117" stroke="#0762EA" stroke-width="2" stroke-linecap="round" stroke-linejoin="round"/><path d="M24 11.99l.01.01-.01.01-.01-.01.01-.01" stroke="#449753" stroke-width="2" stroke-linecap="round" stroke-linejoin="round"/><path d="M24 11.99l.01.01-.01.01-.01-.01.01-.01" stroke="#009A4B" stroke-width="2" stroke-linecap="round" stroke-linejoin="round"/><path d="M24 11.99l.01.01-.01.01-.01-.01.01-.01" stroke="#0762EA" stroke-width="2" stroke-linecap="round" stroke-linejoin="round"/></svg>