<svg width="48" height="48" fill="none" xmlns="http://www.w3.org/2000/svg"><path d="M23.996 22.789V18.37l2.919-1.622a4.588 4.588 0 002.36-4.01 5.052 5.052 0 00-5.322-4.73 5.156 5.156 0 00-5.236 3.986" stroke="#449753" stroke-width="2" stroke-linecap="round" stroke-linejoin="round"/><path d="M23.996 22.789V18.37l2.919-1.622a4.588 4.588 0 002.36-4.01 5.052 5.052 0 00-5.322-4.73 5.156 5.156 0 00-5.236 3.986" stroke="#009A4B" stroke-width="2" stroke-linecap="round" stroke-linejoin="round"/><path d="M23.996 22.789V18.37l2.919-1.622a4.588 4.588 0 002.36-4.01 5.052 5.052 0 00-5.322-4.73 5.156 5.156 0 00-5.236 3.986" stroke="#0762EA" stroke-width="2" stroke-linecap="round" stroke-linejoin="round"/><path clip-rule="evenodd" d="M36.665 39.681h2.616a3.693 3.693 0 002.023-6.793L27.118 23.71a5.75 5.75 0 00-6.243 0L6.688 32.888a3.693 3.693 0 002.023 6.793h27.954z" stroke="#449753" stroke-width="2" stroke-linecap="round" stroke-linejoin="round"/><path clip-rule="evenodd" d="M36.665 39.681h2.616a3.693 3.693 0 002.023-6.793L27.118 23.71a5.75 5.75 0 00-6.243 0L6.688 32.888a3.693 3.693 0 002.023 6.793h27.954z" stroke="#009A4B" stroke-width="2" stroke-linecap="round" stroke-linejoin="round"/><path clip-rule="evenodd" d="M36.665 39.681h2.616a3.693 3.693 0 002.023-6.793L27.118 23.71a5.75 5.75 0 00-6.243 0L6.688 32.888a3.693 3.693 0 002.023 6.793h27.954z" stroke="#0762EA" stroke-width="2" stroke-linecap="round" stroke-linejoin="round"/></svg>