<svg width="48" height="48" fill="none" xmlns="http://www.w3.org/2000/svg"><path clip-rule="evenodd" d="M6.992 38.006h1.401c2.35.001 4.647.697 6.603 2v0c1.955 1.304 4.252 2 6.603 2.002H26.4a11.913 11.913 0 006.602-2.001v0c1.956-1.304 4.253-2 6.603-2.001h1.4a3.001 3.001 0 003.002-3.001v0a3.001 3.001 0 00-3.001-3.002H6.992a3.001 3.001 0 00-3 3.002v0a3.001 3.001 0 003 3z" stroke="#449753" stroke-width="2" stroke-linecap="round" stroke-linejoin="round"/><path clip-rule="evenodd" d="M6.992 38.006h1.401c2.35.001 4.647.697 6.603 2v0c1.955 1.304 4.252 2 6.603 2.002H26.4a11.913 11.913 0 006.602-2.001v0c1.956-1.304 4.253-2 6.603-2.001h1.4a3.001 3.001 0 003.002-3.001v0a3.001 3.001 0 00-3.001-3.002H6.992a3.001 3.001 0 00-3 3.002v0a3.001 3.001 0 003 3z" stroke="#009A4B" stroke-width="2" stroke-linecap="round" stroke-linejoin="round"/><path clip-rule="evenodd" d="M6.992 38.006h1.401c2.35.001 4.647.697 6.603 2v0c1.955 1.304 4.252 2 6.603 2.002H26.4a11.913 11.913 0 006.602-2.001v0c1.956-1.304 4.253-2 6.603-2.001h1.4a3.001 3.001 0 003.002-3.001v0a3.001 3.001 0 00-3.001-3.002H6.992a3.001 3.001 0 00-3 3.002v0a3.001 3.001 0 003 3z" stroke="#0762EA" stroke-width="2" stroke-linecap="round" stroke-linejoin="round"/><path d="M13.995 11.595v4.402a3.001 3.001 0 003.001 3.001v0a3.001 3.001 0 003.002-3.001v-4.002a4.002 4.002 0 014.001-4.002v0a4.002 4.002 0 014.002 4.002v4.002a3.001 3.001 0 003.001 3.001v0a3.001 3.001 0 003.002-3.001v-4.402" stroke="#449753" stroke-width="2" stroke-linecap="round" stroke-linejoin="round"/><path d="M13.995 11.595v4.402a3.001 3.001 0 003.001 3.001v0a3.001 3.001 0 003.002-3.001v-4.002a4.002 4.002 0 014.001-4.002v0a4.002 4.002 0 014.002 4.002v4.002a3.001 3.001 0 003.001 3.001v0a3.001 3.001 0 003.002-3.001v-4.402" stroke="#009A4B" stroke-width="2" stroke-linecap="round" stroke-linejoin="round"/><path d="M13.995 11.595v4.402a3.001 3.001 0 003.001 3.001v0a3.001 3.001 0 003.002-3.001v-4.002a4.002 4.002 0 014.001-4.002v0a4.002 4.002 0 014.002 4.002v4.002a3.001 3.001 0 003.001 3.001v0a3.001 3.001 0 003.002-3.001v-4.402" stroke="#0762EA" stroke-width="2" stroke-linecap="round" stroke-linejoin="round"/><path d="M27.465 9.994H28c6.63 0 12.005 5.375 12.005 12.005v10.004" stroke="#449753" stroke-width="2" stroke-linecap="round" stroke-linejoin="round"/><path d="M27.465 9.994H28c6.63 0 12.005 5.375 12.005 12.005v10.004" stroke="#009A4B" stroke-width="2" stroke-linecap="round" stroke-linejoin="round"/><path d="M27.465 9.994H28c6.63 0 12.005 5.375 12.005 12.005v10.004" stroke="#0762EA" stroke-width="2" stroke-linecap="round" stroke-linejoin="round"/><path d="M20.534 9.994h-.536C13.368 9.994 7.993 15.37 7.993 22v10.004" stroke="#449753" stroke-width="2" stroke-linecap="round" stroke-linejoin="round"/><path d="M20.534 9.994h-.536C13.368 9.994 7.993 15.37 7.993 22v10.004" stroke="#009A4B" stroke-width="2" stroke-linecap="round" stroke-linejoin="round"/><path d="M20.534 9.994h-.536C13.368 9.994 7.993 15.37 7.993 22v10.004" stroke="#0762EA" stroke-width="2" stroke-linecap="round" stroke-linejoin="round"/></svg>