<svg width="48" height="48" fill="none" xmlns="http://www.w3.org/2000/svg"><path clip-rule="evenodd" d="M10 14h28c2.21 0 4 1.79 4 4v18c0 2.21-1.79 4-4 4H10c-2.21 0-4-1.79-4-4V18c0-2.21 1.79-4 4-4z" stroke="#449753" stroke-width="2" stroke-linecap="round" stroke-linejoin="round"/><path clip-rule="evenodd" d="M10 14h28c2.21 0 4 1.79 4 4v18c0 2.21-1.79 4-4 4H10c-2.21 0-4-1.79-4-4V18c0-2.21 1.79-4 4-4z" stroke="#009A4B" stroke-width="2" stroke-linecap="round" stroke-linejoin="round"/><path clip-rule="evenodd" d="M10 14h28c2.21 0 4 1.79 4 4v18c0 2.21-1.79 4-4 4H10c-2.21 0-4-1.79-4-4V18c0-2.21 1.79-4 4-4z" stroke="#0762EA" stroke-width="2" stroke-linecap="round" stroke-linejoin="round"/><path d="M19 27h10" stroke="#449753" stroke-width="2" stroke-linecap="round" stroke-linejoin="round"/><path d="M19 27h10" stroke="#009A4B" stroke-width="2" stroke-linecap="round" stroke-linejoin="round"/><path d="M19 27h10" stroke="#0762EA" stroke-width="2" stroke-linecap="round" stroke-linejoin="round"/><path d="M24 22v10" stroke="#449753" stroke-width="2" stroke-linecap="round" stroke-linejoin="round"/><path d="M24 22v10" stroke="#009A4B" stroke-width="2" stroke-linecap="round" stroke-linejoin="round"/><path d="M24 22v10" stroke="#0762EA" stroke-width="2" stroke-linecap="round" stroke-linejoin="round"/><path d="M32 14l-1.242-4.97A4.003 4.003 0 0026.876 6h-5.754a3.999 3.999 0 00-3.88 3.03L16 14" stroke="#449753" stroke-width="2" stroke-linecap="round" stroke-linejoin="round"/><path d="M32 14l-1.242-4.97A4.003 4.003 0 0026.876 6h-5.754a3.999 3.999 0 00-3.88 3.03L16 14" stroke="#009A4B" stroke-width="2" stroke-linecap="round" stroke-linejoin="round"/><path d="M32 14l-1.242-4.97A4.003 4.003 0 0026.876 6h-5.754a3.999 3.999 0 00-3.88 3.03L16 14" stroke="#0762EA" stroke-width="2" stroke-linecap="round" stroke-linejoin="round"/></svg>