<svg width="48" height="48" fill="none" xmlns="http://www.w3.org/2000/svg"><path d="M44 18l-5.24 2" stroke="#449753" stroke-width="2" stroke-linecap="round" stroke-linejoin="round"/><path d="M44 18l-5.24 2" stroke="#009A4B" stroke-width="2" stroke-linecap="round" stroke-linejoin="round"/><path d="M44 18l-5.24 2" stroke="#0762EA" stroke-width="2" stroke-linecap="round" stroke-linejoin="round"/><path d="M9.26 20L4 18" stroke="#449753" stroke-width="2" stroke-linecap="round" stroke-linejoin="round"/><path d="M9.26 20L4 18" stroke="#009A4B" stroke-width="2" stroke-linecap="round" stroke-linejoin="round"/><path d="M9.26 20L4 18" stroke="#0762EA" stroke-width="2" stroke-linecap="round" stroke-linejoin="round"/><path d="M36.5 28h-5" stroke="#449753" stroke-width="2" stroke-linecap="round" stroke-linejoin="round"/><path d="M36.5 28h-5" stroke="#009A4B" stroke-width="2" stroke-linecap="round" stroke-linejoin="round"/><path d="M36.5 28h-5" stroke="#0762EA" stroke-width="2" stroke-linecap="round" stroke-linejoin="round"/><path d="M16.5 28h-5" stroke="#449753" stroke-width="2" stroke-linecap="round" stroke-linejoin="round"/><path d="M16.5 28h-5" stroke="#009A4B" stroke-width="2" stroke-linecap="round" stroke-linejoin="round"/><path d="M16.5 28h-5" stroke="#0762EA" stroke-width="2" stroke-linecap="round" stroke-linejoin="round"/><path d="M38.758 20l-1.678-8.024A5.003 5.003 0 0032.184 8h-16.16a5 5 0 00-4.868 3.862L9.254 20" stroke="#449753" stroke-width="2" stroke-linecap="round" stroke-linejoin="round"/><path d="M38.758 20l-1.678-8.024A5.003 5.003 0 0032.184 8h-16.16a5 5 0 00-4.868 3.862L9.254 20" stroke="#009A4B" stroke-width="2" stroke-linecap="round" stroke-linejoin="round"/><path d="M38.758 20l-1.678-8.024A5.003 5.003 0 0032.184 8h-16.16a5 5 0 00-4.868 3.862L9.254 20" stroke="#0762EA" stroke-width="2" stroke-linecap="round" stroke-linejoin="round"/><path clip-rule="evenodd" d="M6.5 40H11c1.656 0 3-1.344 3-3v-2h20v2c0 1.656 1.344 3 3 3h4.5a2.5 2.5 0 002.5-2.5V26a6 6 0 00-6-6H10a6 6 0 00-6 6v11.5A2.5 2.5 0 006.5 40z" stroke="#449753" stroke-width="2" stroke-linecap="round" stroke-linejoin="round"/><path clip-rule="evenodd" d="M6.5 40H11c1.656 0 3-1.344 3-3v-2h20v2c0 1.656 1.344 3 3 3h4.5a2.5 2.5 0 002.5-2.5V26a6 6 0 00-6-6H10a6 6 0 00-6 6v11.5A2.5 2.5 0 006.5 40z" stroke="#009A4B" stroke-width="2" stroke-linecap="round" stroke-linejoin="round"/><path clip-rule="evenodd" d="M6.5 40H11c1.656 0 3-1.344 3-3v-2h20v2c0 1.656 1.344 3 3 3h4.5a2.5 2.5 0 002.5-2.5V26a6 6 0 00-6-6H10a6 6 0 00-6 6v11.5A2.5 2.5 0 006.5 40z" stroke="#0762EA" stroke-width="2" stroke-linecap="round" stroke-linejoin="round"/></svg>