<svg width="48" height="48" fill="none" xmlns="http://www.w3.org/2000/svg"><path d="M38 40v2" stroke="#449753" stroke-width="2" stroke-linecap="round" stroke-linejoin="round"/><path d="M38 40v2" stroke="#009A4B" stroke-width="2" stroke-linecap="round" stroke-linejoin="round"/><path d="M38 40v2" stroke="#0762EA" stroke-width="2" stroke-linecap="round" stroke-linejoin="round"/><path d="M10 40v2" stroke="#449753" stroke-width="2" stroke-linecap="round" stroke-linejoin="round"/><path d="M10 40v2" stroke="#009A4B" stroke-width="2" stroke-linecap="round" stroke-linejoin="round"/><path d="M10 40v2" stroke="#0762EA" stroke-width="2" stroke-linecap="round" stroke-linejoin="round"/><path d="M38 22v-2c0-5.523-4.477-10-10-10h-8c-5.523 0-10 4.477-10 10v2" stroke="#449753" stroke-width="2" stroke-linecap="round" stroke-linejoin="round"/><path d="M38 22v-2c0-5.523-4.477-10-10-10h-8c-5.523 0-10 4.477-10 10v2" stroke="#009A4B" stroke-width="2" stroke-linecap="round" stroke-linejoin="round"/><path d="M38 22v-2c0-5.523-4.477-10-10-10h-8c-5.523 0-10 4.477-10 10v2" stroke="#0762EA" stroke-width="2" stroke-linecap="round" stroke-linejoin="round"/><path clip-rule="evenodd" d="M14 32v-5a5 5 0 10-6 4.9V37a3 3 0 003 3h26a3 3 0 003-3v-5.1a5 5 0 10-6-4.9v5H14z" stroke="#449753" stroke-width="2" stroke-linecap="round" stroke-linejoin="round"/><path clip-rule="evenodd" d="M14 32v-5a5 5 0 10-6 4.9V37a3 3 0 003 3h26a3 3 0 003-3v-5.1a5 5 0 10-6-4.9v5H14z" stroke="#009A4B" stroke-width="2" stroke-linecap="round" stroke-linejoin="round"/><path clip-rule="evenodd" d="M14 32v-5a5 5 0 10-6 4.9V37a3 3 0 003 3h26a3 3 0 003-3v-5.1a5 5 0 10-6-4.9v5H14z" stroke="#0762EA" stroke-width="2" stroke-linecap="round" stroke-linejoin="round"/></svg>