<svg width="60" height="60" fill="none" xmlns="http://www.w3.org/2000/svg"><path d="M35 39.95v2.525" stroke="#449753" stroke-width="2" stroke-linecap="round" stroke-linejoin="round"/><path d="M35 39.95v2.525" stroke="#009A4B" stroke-width="2" stroke-linecap="round" stroke-linejoin="round"/><path d="M35 39.95v2.525" stroke="#0762EA" stroke-width="2" stroke-linecap="round" stroke-linejoin="round"/><path d="M25 39.95v2.525" stroke="#449753" stroke-width="2" stroke-linecap="round" stroke-linejoin="round"/><path d="M25 39.95v2.525" stroke="#009A4B" stroke-width="2" stroke-linecap="round" stroke-linejoin="round"/><path d="M25 39.95v2.525" stroke="#0762EA" stroke-width="2" stroke-linecap="round" stroke-linejoin="round"/><path clip-rule="evenodd" d="M50 30H10a2.5 2.5 0 01-2.5-2.5v-5A2.5 2.5 0 0110 20h40a2.5 2.5 0 012.5 2.5v5A2.5 2.5 0 0150 30z" stroke="#449753" stroke-width="2" stroke-linecap="round" stroke-linejoin="round"/><path clip-rule="evenodd" d="M50 30H10a2.5 2.5 0 01-2.5-2.5v-5A2.5 2.5 0 0110 20h40a2.5 2.5 0 012.5 2.5v5A2.5 2.5 0 0150 30z" stroke="#009A4B" stroke-width="2" stroke-linecap="round" stroke-linejoin="round"/><path clip-rule="evenodd" d="M50 30H10a2.5 2.5 0 01-2.5-2.5v-5A2.5 2.5 0 0110 20h40a2.5 2.5 0 012.5 2.5v5A2.5 2.5 0 0150 30z" stroke="#0762EA" stroke-width="2" stroke-linecap="round" stroke-linejoin="round"/><path d="M35.1 7.575l7.4 12.35" stroke="#449753" stroke-width="2" stroke-linecap="round" stroke-linejoin="round"/><path d="M35.1 7.575l7.4 12.35" stroke="#009A4B" stroke-width="2" stroke-linecap="round" stroke-linejoin="round"/><path d="M35.1 7.575l7.4 12.35" stroke="#0762EA" stroke-width="2" stroke-linecap="round" stroke-linejoin="round"/><path d="M24.9 7.575l-7.4 12.35" stroke="#449753" stroke-width="2" stroke-linecap="round" stroke-linejoin="round"/><path d="M24.9 7.575l-7.4 12.35" stroke="#009A4B" stroke-width="2" stroke-linecap="round" stroke-linejoin="round"/><path d="M24.9 7.575l-7.4 12.35" stroke="#0762EA" stroke-width="2" stroke-linecap="round" stroke-linejoin="round"/><path d="M49.395 30l-4.217 19.472a3.748 3.748 0 01-3.665 2.956H18.488a3.75 3.75 0 01-3.665-2.956L10.605 30" stroke="#449753" stroke-width="2" stroke-linecap="round" stroke-linejoin="round"/><path d="M49.395 30l-4.217 19.472a3.748 3.748 0 01-3.665 2.956H18.488a3.75 3.75 0 01-3.665-2.956L10.605 30" stroke="#009A4B" stroke-width="2" stroke-linecap="round" stroke-linejoin="round"/><path d="M49.395 30l-4.217 19.472a3.748 3.748 0 01-3.665 2.956H18.488a3.75 3.75 0 01-3.665-2.956L10.605 30" stroke="#0762EA" stroke-width="2" stroke-linecap="round" stroke-linejoin="round"/></svg>