<svg width="60" height="60" fill="none" xmlns="http://www.w3.org/2000/svg"><path clip-rule="evenodd" d="M47.5 51.25h-35c-2.762 0-5-2.237-5-5v-22.5a5 5 0 015-5h35c2.763 0 5 2.238 5 5v22.5c0 2.763-2.237 5-5 5z" stroke="#449753" stroke-width="2" stroke-linecap="round" stroke-linejoin="round"/><path clip-rule="evenodd" d="M47.5 51.25h-35c-2.762 0-5-2.237-5-5v-22.5a5 5 0 015-5h35c2.763 0 5 2.238 5 5v22.5c0 2.763-2.237 5-5 5z" stroke="#009A4B" stroke-width="2" stroke-linecap="round" stroke-linejoin="round"/><path clip-rule="evenodd" d="M47.5 51.25h-35c-2.762 0-5-2.237-5-5v-22.5a5 5 0 015-5h35c2.763 0 5 2.238 5 5v22.5c0 2.763-2.237 5-5 5z" stroke="#0762EA" stroke-width="2" stroke-linecap="round" stroke-linejoin="round"/><path d="M40.435 18.75v-5c0-2.762-2.237-5-5-5h-10.87a5 5 0 00-5 5v5" stroke="#449753" stroke-width="2" stroke-linecap="round" stroke-linejoin="round"/><path d="M40.435 18.75v-5c0-2.762-2.237-5-5-5h-10.87a5 5 0 00-5 5v5" stroke="#009A4B" stroke-width="2" stroke-linecap="round" stroke-linejoin="round"/><path d="M40.435 18.75v-5c0-2.762-2.237-5-5-5h-10.87a5 5 0 00-5 5v5" stroke="#0762EA" stroke-width="2" stroke-linecap="round" stroke-linejoin="round"/><path d="M7.5 23.75l15.878 10.477c.817.54 1.774.828 2.755.828h7.735c.98 0 1.937-.288 2.755-.828L52.5 23.75" stroke="#449753" stroke-width="2" stroke-linecap="round" stroke-linejoin="round"/><path d="M7.5 23.75l15.878 10.477c.817.54 1.774.828 2.755.828h7.735c.98 0 1.937-.288 2.755-.828L52.5 23.75" stroke="#009A4B" stroke-width="2" stroke-linecap="round" stroke-linejoin="round"/><path d="M7.5 23.75l15.878 10.477c.817.54 1.774.828 2.755.828h7.735c.98 0 1.937-.288 2.755-.828L52.5 23.75" stroke="#0762EA" stroke-width="2" stroke-linecap="round" stroke-linejoin="round"/></svg>