<svg width="60" height="60" fill="none" xmlns="http://www.w3.org/2000/svg"><path d="M55 55H5" stroke="#449753" stroke-width="2" stroke-linecap="round" stroke-linejoin="round"/><path d="M55 55H5" stroke="#009A4B" stroke-width="2" stroke-linecap="round" stroke-linejoin="round"/><path d="M55 55H5" stroke="#0762EA" stroke-width="2" stroke-linecap="round" stroke-linejoin="round"/><path d="M13.75 17.5V10a2.5 2.5 0 012.5-2.5h2.5a2.5 2.5 0 012.5 2.5v7.5" stroke="#449753" stroke-width="2" stroke-linecap="round" stroke-linejoin="round"/><path d="M13.75 17.5V10a2.5 2.5 0 012.5-2.5h2.5a2.5 2.5 0 012.5 2.5v7.5" stroke="#009A4B" stroke-width="2" stroke-linecap="round" stroke-linejoin="round"/><path d="M13.75 17.5V10a2.5 2.5 0 012.5-2.5h2.5a2.5 2.5 0 012.5 2.5v7.5" stroke="#0762EA" stroke-width="2" stroke-linecap="round" stroke-linejoin="round"/><path d="M28.75 17.5v-5a2.5 2.5 0 012.5-2.5h2.5a2.5 2.5 0 012.5 2.5v5" stroke="#449753" stroke-width="2" stroke-linecap="round" stroke-linejoin="round"/><path d="M28.75 17.5v-5a2.5 2.5 0 012.5-2.5h2.5a2.5 2.5 0 012.5 2.5v5" stroke="#009A4B" stroke-width="2" stroke-linecap="round" stroke-linejoin="round"/><path d="M28.75 17.5v-5a2.5 2.5 0 012.5-2.5h2.5a2.5 2.5 0 012.5 2.5v5" stroke="#0762EA" stroke-width="2" stroke-linecap="round" stroke-linejoin="round"/><path d="M32.5 27.5h-15" stroke="#449753" stroke-width="2" stroke-linecap="round" stroke-linejoin="round"/><path d="M32.5 27.5h-15" stroke="#009A4B" stroke-width="2" stroke-linecap="round" stroke-linejoin="round"/><path d="M32.5 27.5h-15" stroke="#0762EA" stroke-width="2" stroke-linecap="round" stroke-linejoin="round"/><path d="M32.5 35h-15" stroke="#449753" stroke-width="2" stroke-linecap="round" stroke-linejoin="round"/><path d="M32.5 35h-15" stroke="#009A4B" stroke-width="2" stroke-linecap="round" stroke-linejoin="round"/><path d="M32.5 35h-15" stroke="#0762EA" stroke-width="2" stroke-linecap="round" stroke-linejoin="round"/><path d="M42.5 35H50a2.5 2.5 0 012.5 2.5V55" stroke="#449753" stroke-width="2" stroke-linecap="round" stroke-linejoin="round"/><path d="M42.5 35H50a2.5 2.5 0 012.5 2.5V55" stroke="#009A4B" stroke-width="2" stroke-linecap="round" stroke-linejoin="round"/><path d="M42.5 35H50a2.5 2.5 0 012.5 2.5V55" stroke="#0762EA" stroke-width="2" stroke-linecap="round" stroke-linejoin="round"/><path d="M7.5 55V20a2.5 2.5 0 012.5-2.5h30a2.5 2.5 0 012.5 2.5v35" stroke="#449753" stroke-width="2" stroke-linecap="round" stroke-linejoin="round"/><path d="M7.5 55V20a2.5 2.5 0 012.5-2.5h30a2.5 2.5 0 012.5 2.5v35" stroke="#009A4B" stroke-width="2" stroke-linecap="round" stroke-linejoin="round"/><path d="M7.5 55V20a2.5 2.5 0 012.5-2.5h30a2.5 2.5 0 012.5 2.5v35" stroke="#0762EA" stroke-width="2" stroke-linecap="round" stroke-linejoin="round"/><path clip-rule="evenodd" d="M22.5 42.5h5A2.5 2.5 0 0130 45v10H20V45a2.5 2.5 0 012.5-2.5z" stroke="#449753" stroke-width="2" stroke-linecap="round" stroke-linejoin="round"/><path clip-rule="evenodd" d="M22.5 42.5h5A2.5 2.5 0 0130 45v10H20V45a2.5 2.5 0 012.5-2.5z" stroke="#009A4B" stroke-width="2" stroke-linecap="round" stroke-linejoin="round"/><path clip-rule="evenodd" d="M22.5 42.5h5A2.5 2.5 0 0130 45v10H20V45a2.5 2.5 0 012.5-2.5z" stroke="#0762EA" stroke-width="2" stroke-linecap="round" stroke-linejoin="round"/></svg>