<svg width="48" height="48" fill="none" xmlns="http://www.w3.org/2000/svg"><g clip-path="url(#clip0_1247_36477)"><path d="M9.848 17.09h13.318c5.439 0 9.848 4.408 9.848 9.848v6.985c0 5.44-4.41 9.849-9.849 9.849h-7.643a.378.378 0 00-.326.192c-1.1 1.895-3.391 3.246-6.4 4.023-.372.096-.621-.367-.343-.632 1.123-1.073 1.676-2.133 1.768-3.17a.376.376 0 00-.373-.413C4.41 43.772 0 39.362 0 33.923v-6.986c0-5.439 4.41-9.848 9.848-9.848z" fill="url(#paint0_linear_1247_36477)"/><path d="M0 27.1v6.823c0 5.44 4.41 9.849 9.848 9.849.222 0 .393.191.373.412-.092 1.038-.644 2.098-1.768 3.17-.278.266-.028.73.344.633 3.008-.777 5.298-2.128 6.399-4.023a.378.378 0 01.326-.192h7.644c5.439 0 9.848-4.41 9.848-9.849V27.1H0z" fill="url(#paint1_linear_1247_36477)"/><path d="M23.166 17.09h-8.133v27.132c.056-.085.112-.17.163-.258a.378.378 0 01.326-.192h7.644c5.439 0 9.848-4.41 9.848-9.849v-6.986c0-5.439-4.409-9.848-9.848-9.848z" fill="url(#paint2_linear_1247_36477)"/><path d="M10.34 29.867l13.852 13.851c4.956-.513 8.822-4.703 8.822-9.795v-4.056H10.34z" fill="url(#paint3_linear_1247_36477)"/><path d="M35.67 0H18.998C12.19 0 6.668 5.52 6.668 12.33v8.745c0 6.81 5.521 12.33 12.33 12.33h9.57c.17 0 .323.093.408.24 1.378 2.373 4.245 4.064 8.011 5.037.466.12.779-.46.43-.792-1.406-1.343-2.097-2.67-2.214-3.97a.471.471 0 01.467-.516c6.81 0 12.33-5.52 12.33-12.329v-8.746C48 5.52 42.48 0 35.67 0z" fill="url(#paint4_linear_1247_36477)"/><path d="M35.67 0H24.61v33.404h3.957c.17 0 .323.094.409.241 1.377 2.373 4.245 4.064 8.011 5.037.466.12.778-.46.43-.792-1.407-1.343-2.098-2.67-2.214-3.97a.471.471 0 01.467-.516c6.81 0 12.33-5.52 12.33-12.329v-8.746C48 5.52 42.48 0 35.67 0z" fill="url(#paint5_linear_1247_36477)"/><path d="M48 12.532v8.543c0 6.81-5.52 12.33-12.33 12.33a.471.471 0 00-.467.516c.117 1.3.808 2.626 2.215 3.97.348.331.035.911-.43.79-3.767-.972-6.634-2.663-8.012-5.036a.474.474 0 00-.409-.24h-9.569c-6.809 0-12.33-5.52-12.33-12.33v-8.543H48z" fill="url(#paint6_linear_1247_36477)"/><path d="M33.014 26.938c0-5.44-4.41-9.849-9.849-9.849H9.848a9.836 9.836 0 00-3.18.525v3.461c0 6.81 5.521 12.33 12.33 12.33h9.57c.17 0 .323.093.408.24.763 1.315 1.984 2.42 3.562 3.31a9.84 9.84 0 00.476-3.032v-6.986z" fill="url(#paint7_linear_1247_36477)"/><path d="M41.37 20.51H13.3a.703.703 0 100 1.406h28.07a.703.703 0 100-1.407z" fill="url(#paint8_linear_1247_36477)"/><path d="M30.643 25.522H13.3a.703.703 0 100 1.406h17.343a.703.703 0 100-1.406z" fill="url(#paint9_linear_1247_36477)"/><path d="M15.875 14.763l2.157.676a.902.902 0 001.17-.851l.025-2.26a.9.9 0 01.166-.512l1.309-1.842a.901.901 0 00-.448-1.377l-2.141-.721a.902.902 0 01-.436-.317L16.33 5.745a.901.901 0 00-1.447 0L13.534 7.56a.902.902 0 01-.436.317l-2.141.721a.901.901 0 00-.447 1.376l1.308 1.843c.107.15.165.328.167.512l.024 2.26a.901.901 0 001.17.85l2.157-.675a.901.901 0 01.539 0z" fill="url(#paint10_linear_1247_36477)"/><path d="M10.433 9.06a.898.898 0 00.076.913l1.31 1.843c.105.15.163.328.166.512l.024 2.26a.901.901 0 001.17.85l2.157-.675a.902.902 0 01.539 0l2.157.675a.902.902 0 001.17-.85l.025-2.26a.9.9 0 01.04-.26L10.434 9.06z" fill="url(#paint11_linear_1247_36477)"/><path d="M20.779 9.06a.898.898 0 01-.077.913l-1.309 1.843a.901.901 0 00-.166.512l-.025 2.26a.901.901 0 01-1.17.85l-2.157-.675a.901.901 0 00-.539 0l-2.156.675a.901.901 0 01-1.171-.85l-.024-2.26a.902.902 0 00-.042-.26L20.78 9.06z" fill="url(#paint12_linear_1247_36477)"/><path d="M20.254 8.597l-2.141-.721a.902.902 0 01-.436-.317l-1.348-1.814a.895.895 0 00-.724-.364v9.341a.9.9 0 01.27.041l2.156.675a.902.902 0 001.171-.85l.024-2.26a.901.901 0 01.167-.512L20.7 9.973a.901.901 0 00-.447-1.376z" fill="url(#paint13_linear_1247_36477)"/><path d="M20.254 8.597l-2.141-.721a.902.902 0 01-.436-.317l-1.348-1.814a.895.895 0 00-.724-.364v9.341a.9.9 0 01.27.041l2.156.675a.902.902 0 001.171-.85l.024-2.26a.901.901 0 01.167-.512L20.7 9.973a.901.901 0 00-.447-1.376z" fill="url(#paint14_linear_1247_36477)"/><path d="M11.947 12.083a.876.876 0 01.038.245l.024 2.26a.901.901 0 001.17.85l2.157-.675a.9.9 0 01.539 0l2.157.675a.902.902 0 001.17-.85l.025-2.26a.9.9 0 01.037-.245h-7.317z" fill="url(#paint15_linear_1247_36477)"/><path d="M15.76 12.923l1.242.389a.519.519 0 00.673-.49l.014-1.3a.52.52 0 01.096-.295l.753-1.06a.519.519 0 00-.258-.791l-1.232-.415a.518.518 0 01-.25-.182l-.776-1.044a.519.519 0 00-.832 0l-.776 1.044a.52.52 0 01-.25.182l-1.233.415a.519.519 0 00-.257.792l.753 1.06a.518.518 0 01.096.294l.014 1.3a.519.519 0 00.673.49l1.24-.389a.528.528 0 01.31 0z" fill="url(#paint16_linear_1247_36477)"/><path d="M27.604 14.763l2.156.676a.902.902 0 001.171-.851l.024-2.26a.901.901 0 01.167-.512l1.308-1.842a.901.901 0 00-.447-1.377l-2.142-.721a.902.902 0 01-.435-.317l-1.348-1.814a.901.901 0 00-1.447 0L25.263 7.56a.901.901 0 01-.436.317l-2.142.721a.901.901 0 00-.447 1.376l1.309 1.843c.106.15.164.328.166.512l.025 2.26a.901.901 0 001.17.85l2.157-.675a.902.902 0 01.539 0z" fill="url(#paint17_linear_1247_36477)"/><path d="M22.162 9.06a.898.898 0 00.077.913l1.309 1.843c.106.15.164.328.166.512l.024 2.26a.901.901 0 001.171.85l2.157-.675a.902.902 0 01.538 0l2.157.675a.902.902 0 001.17-.85l.025-2.26a.911.911 0 01.041-.26L22.162 9.06z" fill="url(#paint18_linear_1247_36477)"/><path d="M32.508 9.06a.898.898 0 01-.077.913l-1.308 1.843a.901.901 0 00-.167.512l-.024 2.26a.901.901 0 01-1.17.85l-2.157-.675a.901.901 0 00-.54 0l-2.156.675a.901.901 0 01-1.17-.85l-.025-2.26a.902.902 0 00-.041-.26l8.835-3.008z" fill="url(#paint19_linear_1247_36477)"/><path d="M31.984 8.597l-2.142-.721a.902.902 0 01-.435-.317l-1.349-1.814a.895.895 0 00-.723-.364v9.341a.9.9 0 01.27.041l2.156.675a.902.902 0 001.17-.85l.025-2.26a.901.901 0 01.166-.512l1.309-1.843a.901.901 0 00-.447-1.376z" fill="url(#paint20_linear_1247_36477)"/><path d="M31.984 8.597l-2.142-.721a.902.902 0 01-.435-.317l-1.349-1.814a.895.895 0 00-.723-.364v9.341a.9.9 0 01.27.041l2.156.675a.902.902 0 001.17-.85l.025-2.26a.901.901 0 01.166-.512l1.309-1.843a.901.901 0 00-.447-1.376z" fill="url(#paint21_linear_1247_36477)"/><path d="M23.676 12.083a.914.914 0 01.037.245l.024 2.26a.901.901 0 001.171.85l2.157-.675a.9.9 0 01.538 0l2.157.675a.901.901 0 001.17-.85l.025-2.26a.914.914 0 01.037-.245h-7.316z" fill="url(#paint22_linear_1247_36477)"/><path d="M27.49 12.923l1.24.389a.519.519 0 00.674-.49l.013-1.3a.52.52 0 01.096-.295l.753-1.06a.519.519 0 00-.257-.791l-1.232-.415a.518.518 0 01-.251-.182l-.775-1.044a.519.519 0 00-.833 0l-.775 1.044a.52.52 0 01-.251.182l-1.232.415a.519.519 0 00-.257.792l.753 1.06a.518.518 0 01.095.294l.014 1.3a.519.519 0 00.674.49l1.24-.389a.518.518 0 01.31 0z" fill="url(#paint23_linear_1247_36477)"/><path d="M39.333 14.763l2.157.676a.902.902 0 001.17-.851l.025-2.26a.9.9 0 01.166-.512l1.309-1.842a.901.901 0 00-.447-1.377l-2.142-.721a.902.902 0 01-.436-.317l-1.348-1.814a.901.901 0 00-1.447 0L36.992 7.56a.902.902 0 01-.435.317l-2.142.721a.901.901 0 00-.447 1.376l1.308 1.843c.107.15.165.328.167.512l.024 2.26a.901.901 0 001.17.85l2.157-.675a.902.902 0 01.54 0z" fill="url(#paint24_linear_1247_36477)"/><path d="M33.89 9.06a.898.898 0 00.078.913l1.308 1.843c.106.15.164.328.167.512l.024 2.26a.901.901 0 001.17.85l2.157-.675a.902.902 0 01.539 0l2.157.675a.902.902 0 001.17-.85l.025-2.26a.9.9 0 01.04-.26L33.892 9.06z" fill="url(#paint25_linear_1247_36477)"/><path d="M44.237 9.06a.898.898 0 01-.077.913l-1.309 1.843a.902.902 0 00-.166.512l-.025 2.26a.901.901 0 01-1.17.85l-2.157-.675a.902.902 0 00-.539 0l-2.156.675a.901.901 0 01-1.171-.85l-.024-2.26a.899.899 0 00-.042-.26l8.836-3.008z" fill="url(#paint26_linear_1247_36477)"/><path d="M43.712 8.597l-2.141-.721a.902.902 0 01-.436-.317l-1.348-1.814a.895.895 0 00-.724-.364v9.341a.9.9 0 01.27.041l2.156.675a.902.902 0 001.171-.85l.025-2.26a.901.901 0 01.166-.512l1.308-1.843a.901.901 0 00-.447-1.376z" fill="url(#paint27_linear_1247_36477)"/><path d="M43.712 8.597l-2.141-.721a.902.902 0 01-.436-.317l-1.348-1.814a.895.895 0 00-.724-.364v9.341a.9.9 0 01.27.041l2.156.675a.902.902 0 001.171-.85l.025-2.26a.901.901 0 01.166-.512l1.308-1.843a.901.901 0 00-.447-1.376z" fill="url(#paint28_linear_1247_36477)"/><path d="M35.405 12.083a.876.876 0 01.038.245l.024 2.26a.901.901 0 001.17.85l2.157-.675a.9.9 0 01.539 0l2.157.675a.901.901 0 001.17-.85l.025-2.26c0-.084.014-.166.037-.245h-7.317z" fill="url(#paint29_linear_1247_36477)"/><path d="M39.219 12.923l1.24.389a.519.519 0 00.674-.49l.014-1.3a.52.52 0 01.096-.295l.752-1.06a.519.519 0 00-.257-.791l-1.232-.415a.518.518 0 01-.25-.182l-.776-1.044a.519.519 0 00-.832 0l-.776 1.044a.52.52 0 01-.25.182l-1.233.415a.519.519 0 00-.257.792l.753 1.06a.518.518 0 01.096.294l.014 1.3a.519.519 0 00.673.49l1.24-.389a.528.528 0 01.31 0z" fill="url(#paint30_linear_1247_36477)"/></g><defs><linearGradient id="paint0_linear_1247_36477" x1="10.65" y1="18.717" x2="21.173" y2="39.763" gradientUnits="userSpaceOnUse"><stop stop-color="#BED5F9"/><stop offset="1" stop-color="#0762EA"/></linearGradient><linearGradient id="paint1_linear_1247_36477" x1="16.507" y1="36.408" x2="16.507" y2="44.793" gradientUnits="userSpaceOnUse"><stop stop-color="#0762EA" stop-opacity="0"/><stop offset=".36" stop-color="#0762EA" stop-opacity=".36"/><stop offset=".794" stop-color="#0762EA" stop-opacity=".795"/><stop offset="1" stop-color="#0762EA"/></linearGradient><linearGradient id="paint2_linear_1247_36477" x1="26.669" y1="30.656" x2="33.079" y2="30.656" gradientUnits="userSpaceOnUse"><stop stop-color="#00A887" stop-opacity="0"/><stop offset=".36" stop-color="#01A58C" stop-opacity=".36"/><stop offset=".794" stop-color="#069C9A" stop-opacity=".795"/><stop offset="1" stop-color="#0996A4"/></linearGradient><linearGradient id="paint3_linear_1247_36477" x1="21.375" y1="42.399" x2="21.698" y2="31.246" gradientUnits="userSpaceOnUse"><stop stop-color="#0762EA" stop-opacity="0"/><stop offset=".36" stop-color="#0762EA" stop-opacity=".36"/><stop offset=".794" stop-color="#0762EA" stop-opacity=".795"/><stop offset="1" stop-color="#0762EA"/></linearGradient><linearGradient id="paint4_linear_1247_36477" x1="21.776" y1="4.132" x2="34.808" y2="33.605" gradientUnits="userSpaceOnUse"><stop stop-color="#F5FBFF"/><stop offset="1" stop-color="#D8ECFE"/></linearGradient><linearGradient id="paint5_linear_1247_36477" x1="39.847" y1="19.349" x2="47.872" y2="19.349" gradientUnits="userSpaceOnUse"><stop stop-color="#B3DAFE" stop-opacity="0"/><stop offset=".431" stop-color="#B1D9FE" stop-opacity=".432"/><stop offset=".666" stop-color="#A9D6FE" stop-opacity=".666"/><stop offset=".852" stop-color="#9BD0FE" stop-opacity=".852"/><stop offset="1" stop-color="#8AC9FE"/></linearGradient><linearGradient id="paint6_linear_1247_36477" x1="27.334" y1="24.186" x2="27.334" y2="34.684" gradientUnits="userSpaceOnUse"><stop stop-color="#B3DAFE" stop-opacity="0"/><stop offset=".431" stop-color="#B1D9FE" stop-opacity=".432"/><stop offset=".666" stop-color="#A9D6FE" stop-opacity=".666"/><stop offset=".852" stop-color="#9BD0FE" stop-opacity=".852"/><stop offset="1" stop-color="#8AC9FE"/></linearGradient><linearGradient id="paint7_linear_1247_36477" x1="10.366" y1="10.03" x2="27.709" y2="36.295" gradientUnits="userSpaceOnUse"><stop stop-color="#B3DAFE" stop-opacity="0"/><stop offset=".431" stop-color="#B1D9FE" stop-opacity=".432"/><stop offset=".666" stop-color="#A9D6FE" stop-opacity=".666"/><stop offset=".852" stop-color="#9BD0FE" stop-opacity=".852"/><stop offset="1" stop-color="#8AC9FE"/></linearGradient><linearGradient id="paint8_linear_1247_36477" x1="18.324" y1="6.604" x2="32.87" y2="30.189" gradientUnits="userSpaceOnUse"><stop stop-color="#5A5A5A"/><stop offset="1" stop-color="#444"/></linearGradient><linearGradient id="paint9_linear_1247_36477" x1="9.061" y1="5.292" x2="27.686" y2="35.49" gradientUnits="userSpaceOnUse"><stop stop-color="#5A5A5A"/><stop offset="1" stop-color="#444"/></linearGradient><linearGradient id="paint10_linear_1247_36477" x1="13.933" y1="9.509" x2="19.609" y2="15.185" gradientUnits="userSpaceOnUse"><stop stop-color="#FEF0AE"/><stop offset="1" stop-color="#FAC600"/></linearGradient><linearGradient id="paint11_linear_1247_36477" x1="14.894" y1="11.732" x2="15.723" y2="9.784" gradientUnits="userSpaceOnUse"><stop stop-color="#FE9738" stop-opacity="0"/><stop offset="1" stop-color="#FE9738"/></linearGradient><linearGradient id="paint12_linear_1247_36477" x1="16.249" y1="11.424" x2="15.784" y2="9.969" gradientUnits="userSpaceOnUse"><stop stop-color="#FE9738" stop-opacity="0"/><stop offset="1" stop-color="#FE9738"/></linearGradient><linearGradient id="paint13_linear_1247_36477" x1="16.397" y1="10.449" x2="14.632" y2="10.508" gradientUnits="userSpaceOnUse"><stop stop-color="#FE9738" stop-opacity="0"/><stop offset="1" stop-color="#FE9738"/></linearGradient><linearGradient id="paint14_linear_1247_36477" x1="18.979" y1="11.117" x2="20.264" y2="11.531" gradientUnits="userSpaceOnUse"><stop stop-color="#FE9738" stop-opacity="0"/><stop offset="1" stop-color="#FE9738"/></linearGradient><linearGradient id="paint15_linear_1247_36477" x1="15.606" y1="13.72" x2="15.606" y2="15.352" gradientUnits="userSpaceOnUse"><stop stop-color="#FE9738" stop-opacity="0"/><stop offset="1" stop-color="#FE9738"/></linearGradient><linearGradient id="paint16_linear_1247_36477" x1="17.543" y1="12.8" x2="12.603" y2="7.86" gradientUnits="userSpaceOnUse"><stop stop-color="#FEF0AE"/><stop offset="1" stop-color="#FAC600"/></linearGradient><linearGradient id="paint17_linear_1247_36477" x1="25.662" y1="9.509" x2="31.338" y2="15.185" gradientUnits="userSpaceOnUse"><stop stop-color="#FEF0AE"/><stop offset="1" stop-color="#FAC600"/></linearGradient><linearGradient id="paint18_linear_1247_36477" x1="26.623" y1="11.732" x2="27.452" y2="9.784" gradientUnits="userSpaceOnUse"><stop stop-color="#FE9738" stop-opacity="0"/><stop offset="1" stop-color="#FE9738"/></linearGradient><linearGradient id="paint19_linear_1247_36477" x1="27.979" y1="11.424" x2="27.513" y2="9.969" gradientUnits="userSpaceOnUse"><stop stop-color="#FE9738" stop-opacity="0"/><stop offset="1" stop-color="#FE9738"/></linearGradient><linearGradient id="paint20_linear_1247_36477" x1="28.127" y1="10.449" x2="26.361" y2="10.508" gradientUnits="userSpaceOnUse"><stop stop-color="#FE9738" stop-opacity="0"/><stop offset="1" stop-color="#FE9738"/></linearGradient><linearGradient id="paint21_linear_1247_36477" x1="30.708" y1="11.117" x2="31.993" y2="11.531" gradientUnits="userSpaceOnUse"><stop stop-color="#FE9738" stop-opacity="0"/><stop offset="1" stop-color="#FE9738"/></linearGradient><linearGradient id="paint22_linear_1247_36477" x1="27.334" y1="13.72" x2="27.334" y2="15.352" gradientUnits="userSpaceOnUse"><stop stop-color="#FE9738" stop-opacity="0"/><stop offset="1" stop-color="#FE9738"/></linearGradient><linearGradient id="paint23_linear_1247_36477" x1="29.272" y1="12.8" x2="24.331" y2="7.86" gradientUnits="userSpaceOnUse"><stop stop-color="#FEF0AE"/><stop offset="1" stop-color="#FAC600"/></linearGradient><linearGradient id="paint24_linear_1247_36477" x1="37.392" y1="9.509" x2="43.068" y2="15.185" gradientUnits="userSpaceOnUse"><stop stop-color="#FEF0AE"/><stop offset="1" stop-color="#FAC600"/></linearGradient><linearGradient id="paint25_linear_1247_36477" x1="38.352" y1="11.732" x2="39.181" y2="9.784" gradientUnits="userSpaceOnUse"><stop stop-color="#FE9738" stop-opacity="0"/><stop offset="1" stop-color="#FE9738"/></linearGradient><linearGradient id="paint26_linear_1247_36477" x1="39.707" y1="11.424" x2="39.242" y2="9.969" gradientUnits="userSpaceOnUse"><stop stop-color="#FE9738" stop-opacity="0"/><stop offset="1" stop-color="#FE9738"/></linearGradient><linearGradient id="paint27_linear_1247_36477" x1="39.855" y1="10.449" x2="38.09" y2="10.508" gradientUnits="userSpaceOnUse"><stop stop-color="#FE9738" stop-opacity="0"/><stop offset="1" stop-color="#FE9738"/></linearGradient><linearGradient id="paint28_linear_1247_36477" x1="42.437" y1="11.117" x2="43.721" y2="11.531" gradientUnits="userSpaceOnUse"><stop stop-color="#FE9738" stop-opacity="0"/><stop offset="1" stop-color="#FE9738"/></linearGradient><linearGradient id="paint29_linear_1247_36477" x1="39.064" y1="13.72" x2="39.064" y2="15.352" gradientUnits="userSpaceOnUse"><stop stop-color="#FE9738" stop-opacity="0"/><stop offset="1" stop-color="#FE9738"/></linearGradient><linearGradient id="paint30_linear_1247_36477" x1="41.001" y1="12.8" x2="36.061" y2="7.86" gradientUnits="userSpaceOnUse"><stop stop-color="#FEF0AE"/><stop offset="1" stop-color="#FAC600"/></linearGradient><clipPath id="clip0_1247_36477"><path fill="#fff" d="M0 0h48v48H0z"/></clipPath></defs></svg>