<svg width="189" height="48" fill="none" xmlns="http://www.w3.org/2000/svg"><path d="M35.96 21.58v8c0 .52-.02 1.02-.08 1.5-.46 5.4-3.64 8.08-9.5 8.08h-.8c-.5 0-.98.24-1.28.64L21.9 43c-1.06 1.42-2.78 1.42-3.84 0l-2.4-3.2c-.26-.34-.84-.64-1.28-.64h-.8C7.2 39.16 4 37.58 4 29.58v-8c0-5.86 2.7-9.04 8.08-9.5.48-.06.98-.08 1.5-.08h12.8c6.38 0 9.58 3.2 9.58 9.58z" stroke="#449753" stroke-width="2" stroke-miterlimit="10" stroke-linecap="round" stroke-linejoin="round"/><path d="M35.96 21.58v8c0 .52-.02 1.02-.08 1.5-.46 5.4-3.64 8.08-9.5 8.08h-.8c-.5 0-.98.24-1.28.64L21.9 43c-1.06 1.42-2.78 1.42-3.84 0l-2.4-3.2c-.26-.34-.84-.64-1.28-.64h-.8C7.2 39.16 4 37.58 4 29.58v-8c0-5.86 2.7-9.04 8.08-9.5.48-.06.98-.08 1.5-.08h12.8c6.38 0 9.58 3.2 9.58 9.58z" stroke="#009A4B" stroke-width="2" stroke-miterlimit="10" stroke-linecap="round" stroke-linejoin="round"/><path d="M35.96 21.58v8c0 .52-.02 1.02-.08 1.5-.46 5.4-3.64 8.08-9.5 8.08h-.8c-.5 0-.98.24-1.28.64L21.9 43c-1.06 1.42-2.78 1.42-3.84 0l-2.4-3.2c-.26-.34-.84-.64-1.28-.64h-.8C7.2 39.16 4 37.58 4 29.58v-8c0-5.86 2.7-9.04 8.08-9.5.48-.06.98-.08 1.5-.08h12.8c6.38 0 9.58 3.2 9.58 9.58z" stroke="#0762EA" stroke-width="2" stroke-miterlimit="10" stroke-linecap="round" stroke-linejoin="round"/><path d="M43.96 13.58v8c0 5.88-2.7 9.04-8.08 9.5.06-.48.08-.98.08-1.5v-8c0-6.38-3.2-9.58-9.58-9.58h-12.8c-.52 0-1.02.02-1.5.08C12.54 6.7 15.72 4 21.58 4h12.8c6.38 0 9.58 3.2 9.58 9.58z" stroke="#449753" stroke-width="2" stroke-miterlimit="10" stroke-linecap="round" stroke-linejoin="round"/><path d="M43.96 13.58v8c0 5.88-2.7 9.04-8.08 9.5.06-.48.08-.98.08-1.5v-8c0-6.38-3.2-9.58-9.58-9.58h-12.8c-.52 0-1.02.02-1.5.08C12.54 6.7 15.72 4 21.58 4h12.8c6.38 0 9.58 3.2 9.58 9.58z" stroke="#009A4B" stroke-width="2" stroke-miterlimit="10" stroke-linecap="round" stroke-linejoin="round"/><path d="M43.96 13.58v8c0 5.88-2.7 9.04-8.08 9.5.06-.48.08-.98.08-1.5v-8c0-6.38-3.2-9.58-9.58-9.58h-12.8c-.52 0-1.02.02-1.5.08C12.54 6.7 15.72 4 21.58 4h12.8c6.38 0 9.58 3.2 9.58 9.58z" stroke="#0762EA" stroke-width="2" stroke-miterlimit="10" stroke-linecap="round" stroke-linejoin="round"/><path d="M26.991 26.5h.018" stroke="#449753" stroke-width="3" stroke-linecap="round" stroke-linejoin="round"/><path d="M26.991 26.5h.018" stroke="#009A4B" stroke-width="3" stroke-linecap="round" stroke-linejoin="round"/><path d="M26.991 26.5h.018" stroke="#0762EA" stroke-width="3" stroke-linecap="round" stroke-linejoin="round"/><path d="M19.991 26.5h.018" stroke="#449753" stroke-width="3" stroke-linecap="round" stroke-linejoin="round"/><path d="M19.991 26.5h.018" stroke="#009A4B" stroke-width="3" stroke-linecap="round" stroke-linejoin="round"/><path d="M19.991 26.5h.018" stroke="#0762EA" stroke-width="3" stroke-linecap="round" stroke-linejoin="round"/><path d="M12.991 26.5h.018" stroke="#449753" stroke-width="3" stroke-linecap="round" stroke-linejoin="round"/><path d="M12.991 26.5h.018" stroke="#009A4B" stroke-width="3" stroke-linecap="round" stroke-linejoin="round"/><path d="M12.991 26.5h.018" stroke="#0762EA" stroke-width="3" stroke-linecap="round" stroke-linejoin="round"/><path d="M59.62 31V16.86h5.62c.6 0 1.173.053 1.72.16.56.107 1.047.293 1.46.56.427.267.767.627 1.02 1.08.253.453.38 1.033.38 1.74 0 .68-.14 1.287-.42 1.82-.28.533-.74.953-1.38 1.26.867.213 1.5.62 1.9 1.22.4.587.6 1.307.6 2.16 0 .893-.18 1.613-.54 2.16-.36.533-.82.947-1.38 1.24a5.99 5.99 0 01-1.86.6c-.667.093-1.307.14-1.92.14h-5.2zm2.32-12.06v3.88h2.7c.333 0 .673-.027 1.02-.08.36-.053.68-.153.96-.3.28-.16.507-.367.68-.62.187-.267.28-.613.28-1.04 0-.413-.073-.74-.22-.98a1.378 1.378 0 00-.58-.56 2.064 2.064 0 00-.84-.24 7.422 7.422 0 00-.96-.06h-3.04zm0 10h2.84c.36 0 .74-.02 1.14-.06a4.056 4.056 0 001.12-.3c.333-.16.607-.38.82-.66.227-.28.34-.66.34-1.14 0-.4-.087-.727-.26-.98a1.538 1.538 0 00-.64-.6 2.754 2.754 0 00-.9-.3 5.955 5.955 0 00-.98-.08h-.88l-1.72.02h-.88v4.1zm17.498.76c-.346.493-.806.86-1.38 1.1-.573.227-1.213.34-1.92.34-.56 0-1.073-.067-1.54-.2a3.623 3.623 0 01-1.2-.6 3.05 3.05 0 01-.82-1.02c-.2-.413-.3-.88-.3-1.4 0-.573.114-1.06.34-1.46.227-.413.534-.747.92-1a4.4 4.4 0 011.4-.56 6.906 6.906 0 011.68-.2h2.7c0-.773-.173-1.373-.52-1.8-.346-.427-.953-.647-1.82-.66-.506 0-.946.087-1.32.26-.36.173-.6.46-.72.86h-2.34c.08-.56.26-1.033.54-1.42.294-.387.64-.707 1.04-.96a4.337 4.337 0 011.36-.54 7.358 7.358 0 011.52-.16c.654 0 1.26.087 1.82.26.56.173 1.047.467 1.46.88.467.48.78 1.053.94 1.72.16.667.24 1.393.24 2.18V31h-1.98l-.1-1.3zm-.12-3.38h-2.2a6.79 6.79 0 00-1.16.1c-.386.053-.72.193-1 .42-.266.213-.4.527-.4.94 0 .507.18.893.54 1.16.374.253.827.38 1.36.38a3.86 3.86 0 001.14-.16c.36-.107.667-.28.92-.52a2.49 2.49 0 00.58-.94c.147-.387.22-.847.22-1.38zm4.649-5.86h2.28v8.6h3.52v-8.6h2.26v8.6h3.54v-8.6h2.28V31h-13.88V20.46zM102.454 31h-2.12V20.46h2.28v7.24l5.36-7.24h2.06V31h-2.28v-7.1c-.014.027-1.78 2.393-5.3 7.1zm20.198-10.72c.84 0 1.58.133 2.22.4.64.267 1.18.64 1.62 1.12a4.47 4.47 0 011.02 1.7c.227.667.34 1.407.34 2.22 0 .827-.113 1.573-.34 2.24a4.584 4.584 0 01-.98 1.7c-.44.48-.987.847-1.64 1.1-.64.253-1.387.38-2.24.38-.84 0-1.58-.127-2.22-.38a4.651 4.651 0 01-1.62-1.1 4.954 4.954 0 01-.98-1.72c-.213-.667-.32-1.407-.32-2.22 0-.813.107-1.553.32-2.22a4.6 4.6 0 011-1.7c.44-.48.98-.853 1.62-1.12.64-.267 1.373-.4 2.2-.4zm0 8.88c.52 0 .96-.087 1.32-.26.373-.187.673-.433.9-.74.24-.307.413-.667.52-1.08.12-.413.18-.86.18-1.34 0-.48-.06-.927-.18-1.34a2.906 2.906 0 00-.52-1.1 2.302 2.302 0 00-.9-.72c-.36-.173-.8-.26-1.32-.26-.507 0-.947.087-1.32.26a2.5 2.5 0 00-.9.72c-.227.307-.4.673-.52 1.1-.107.413-.16.86-.16 1.34 0 .48.053.927.16 1.34.12.413.293.773.52 1.08.24.307.54.553.9.74.373.173.813.26 1.32.26zm15.492-8.7v1.98h-3.56V31h-2.26v-8.56h-3.56v-1.98h9.38zm8.231 4.9c.56.187.973.493 1.24.92.267.413.4.88.4 1.4v.08c0 .667-.133 1.22-.4 1.66-.267.44-.627.793-1.08 1.06a4.43 4.43 0 01-1.44.52 8.602 8.602 0 01-1.56.14c-.52 0-1.053-.047-1.6-.14a5.04 5.04 0 01-1.48-.54 3.431 3.431 0 01-1.1-1c-.293-.413-.46-.933-.5-1.56h2.2c.053.267.167.487.34.66.187.173.4.313.64.42.24.107.493.18.76.22.267.04.513.06.74.06.24 0 .5-.013.78-.04.28-.04.527-.107.74-.2a1.63 1.63 0 00.56-.42c.147-.187.22-.427.22-.72 0-.507-.193-.847-.58-1.02-.373-.173-.847-.26-1.42-.26h-1.76v-1.8h1.58c.493 0 .913-.1 1.26-.3.347-.2.52-.547.52-1.04 0-.253-.067-.46-.2-.62a1.207 1.207 0 00-.46-.4 1.863 1.863 0 00-.62-.18 3.509 3.509 0 00-.6-.06c-.227 0-.46.02-.7.06-.24.027-.467.087-.68.18-.213.093-.393.22-.54.38-.147.16-.233.367-.26.62h-2.18c.053-.627.22-1.14.5-1.54.28-.413.627-.74 1.04-.98.413-.24.867-.407 1.36-.5a8.276 8.276 0 011.5-.14c.493 0 .973.047 1.44.14.48.093.92.267 1.32.52s.707.56.92.92c.227.347.34.8.34 1.36 0 .507-.12.94-.36 1.3-.227.36-.52.64-.88.84zm3.666-4.9h2.3v3.56h1.9c.586 0 1.133.053 1.64.16.506.107.94.293 1.3.56.373.253.666.593.88 1.02.213.427.32.96.32 1.6 0 .72-.134 1.32-.4 1.8a3.24 3.24 0 01-1.04 1.12 4.277 4.277 0 01-1.44.56c-.534.107-1.06.16-1.58.16h-3.88V20.46zm9.7 10.54V20.46h2.26V31h-2.26zm-6.02-1.9c.293 0 .586-.02.88-.06.293-.053.553-.133.78-.24.226-.12.406-.287.54-.5.133-.213.2-.493.2-.84 0-.293-.054-.533-.16-.72a1.07 1.07 0 00-.4-.44c-.16-.12-.347-.2-.56-.24a5.263 5.263 0 00-.64-.08h-2.02v3.1l1.38.02zm10.773-8.64h4.5c.467 0 .94.027 1.42.08.48.04.913.153 1.3.34.4.187.72.46.96.82.253.347.387.82.4 1.42 0 .467-.107.9-.32 1.3-.213.4-.553.727-1.02.98.64.173 1.107.48 1.4.92.307.427.46.94.46 1.54 0 .56-.113 1.047-.34 1.46a2.89 2.89 0 01-.9.98c-.373.24-.807.42-1.3.54a7.36 7.36 0 01-1.56.16h-5V20.46zm2.3 1.9v2.42h2.32c.333-.013.627-.06.88-.14.267-.08.48-.207.64-.38.173-.173.26-.42.26-.74 0-.28-.067-.493-.2-.64a1.11 1.11 0 00-.46-.36c-.187-.08-.4-.127-.64-.14-.227-.013-.44-.02-.64-.02h-2.16zm2.32 6.72c.267 0 .527-.013.78-.04.267-.027.5-.087.7-.18.213-.107.387-.24.52-.4.133-.173.2-.4.2-.68 0-.507-.16-.847-.48-1.02-.307-.173-.687-.26-1.14-.26h-2.9v2.58h2.32zm6.591-8.62h2.3v3.56h1.9c.587 0 1.133.053 1.64.16.507.107.94.293 1.3.56.373.253.667.593.88 1.02.213.427.32.96.32 1.6 0 .72-.133 1.32-.4 1.8a3.23 3.23 0 01-1.04 1.12 4.277 4.277 0 01-1.44.56c-.533.107-1.06.16-1.58.16h-3.88V20.46zm9.7 10.54V20.46h2.26V31h-2.26zm-6.02-1.9c.293 0 .587-.02.88-.06.293-.053.553-.133.78-.24a1.39 1.39 0 00.54-.5c.133-.213.2-.493.2-.84 0-.293-.053-.533-.16-.72a1.064 1.064 0 00-.4-.44c-.16-.12-.347-.2-.56-.24a5.239 5.239 0 00-.64-.08h-2.02v3.1l1.38.02z" fill="#111"/></svg>