<svg width="101" height="32" fill="none" xmlns="http://www.w3.org/2000/svg"><path d="M23.974 14.387v5.333c0 .347-.014.68-.054 1-.306 3.6-2.426 5.387-6.333 5.387h-.533c-.334 0-.654.16-.854.426l-1.6 2.134c-.706.946-1.853.946-2.56 0l-1.6-2.134c-.173-.226-.56-.426-.853-.426h-.533c-4.254 0-6.387-1.054-6.387-6.387v-5.333c0-3.907 1.8-6.027 5.387-6.334.32-.04.653-.053 1-.053h8.533c4.253 0 6.387 2.133 6.387 6.387z" stroke="#449753" stroke-width="2" stroke-miterlimit="10" stroke-linecap="round" stroke-linejoin="round"/><path d="M23.974 14.387v5.333c0 .347-.014.68-.054 1-.306 3.6-2.426 5.387-6.333 5.387h-.533c-.334 0-.654.16-.854.426l-1.6 2.134c-.706.946-1.853.946-2.56 0l-1.6-2.134c-.173-.226-.56-.426-.853-.426h-.533c-4.254 0-6.387-1.054-6.387-6.387v-5.333c0-3.907 1.8-6.027 5.387-6.334.32-.04.653-.053 1-.053h8.533c4.253 0 6.387 2.133 6.387 6.387z" stroke="#009A4B" stroke-width="2" stroke-miterlimit="10" stroke-linecap="round" stroke-linejoin="round"/><path d="M23.974 14.387v5.333c0 .347-.014.68-.054 1-.306 3.6-2.426 5.387-6.333 5.387h-.533c-.334 0-.654.16-.854.426l-1.6 2.134c-.706.946-1.853.946-2.56 0l-1.6-2.134c-.173-.226-.56-.426-.853-.426h-.533c-4.254 0-6.387-1.054-6.387-6.387v-5.333c0-3.907 1.8-6.027 5.387-6.334.32-.04.653-.053 1-.053h8.533c4.253 0 6.387 2.133 6.387 6.387z" stroke="#0762EA" stroke-width="2" stroke-miterlimit="10" stroke-linecap="round" stroke-linejoin="round"/><path d="M29.307 9.053v5.334c0 3.92-1.8 6.026-5.387 6.333.04-.32.054-.653.054-1v-5.333C23.974 10.133 21.84 8 17.587 8H9.054c-.347 0-.68.013-1 .053.306-3.586 2.426-5.386 6.333-5.386h8.533c4.254 0 6.387 2.133 6.387 6.386z" stroke="#449753" stroke-width="2" stroke-miterlimit="10" stroke-linecap="round" stroke-linejoin="round"/><path d="M29.307 9.053v5.334c0 3.92-1.8 6.026-5.387 6.333.04-.32.054-.653.054-1v-5.333C23.974 10.133 21.84 8 17.587 8H9.054c-.347 0-.68.013-1 .053.306-3.586 2.426-5.386 6.333-5.386h8.533c4.254 0 6.387 2.133 6.387 6.386z" stroke="#009A4B" stroke-width="2" stroke-miterlimit="10" stroke-linecap="round" stroke-linejoin="round"/><path d="M29.307 9.053v5.334c0 3.92-1.8 6.026-5.387 6.333.04-.32.054-.653.054-1v-5.333C23.974 10.133 21.84 8 17.587 8H9.054c-.347 0-.68.013-1 .053.306-3.586 2.426-5.386 6.333-5.386h8.533c4.254 0 6.387 2.133 6.387 6.386z" stroke="#0762EA" stroke-width="2" stroke-miterlimit="10" stroke-linecap="round" stroke-linejoin="round"/><path d="M17.994 17.667h.012" stroke="#449753" stroke-width="3" stroke-linecap="round" stroke-linejoin="round"/><path d="M17.994 17.667h.012" stroke="#009A4B" stroke-width="3" stroke-linecap="round" stroke-linejoin="round"/><path d="M17.994 17.667h.012" stroke="#0762EA" stroke-width="3" stroke-linecap="round" stroke-linejoin="round"/><path d="M13.328 17.667h.012" stroke="#449753" stroke-width="3" stroke-linecap="round" stroke-linejoin="round"/><path d="M13.328 17.667h.012" stroke="#009A4B" stroke-width="3" stroke-linecap="round" stroke-linejoin="round"/><path d="M13.328 17.667h.012" stroke="#0762EA" stroke-width="3" stroke-linecap="round" stroke-linejoin="round"/><path d="M8.66 17.667h.013" stroke="#449753" stroke-width="3" stroke-linecap="round" stroke-linejoin="round"/><path d="M8.66 17.667h.013" stroke="#009A4B" stroke-width="3" stroke-linecap="round" stroke-linejoin="round"/><path d="M8.66 17.667h.013" stroke="#0762EA" stroke-width="3" stroke-linecap="round" stroke-linejoin="round"/><path d="M43.134 13V3.102h3.934c.42 0 .821.037 1.204.112.392.075.733.205 1.022.392.299.187.537.439.714.756.177.317.266.723.266 1.218 0 .476-.098.9-.294 1.274-.196.373-.518.667-.966.882.607.15 1.05.434 1.33.854.28.41.42.915.42 1.512 0 .625-.126 1.13-.378 1.512a2.613 2.613 0 01-.966.868 4.183 4.183 0 01-1.302.42 9.706 9.706 0 01-1.344.098h-3.64zm1.624-8.442v2.716h1.89c.233 0 .471-.019.714-.056.252-.037.476-.107.672-.21a1.42 1.42 0 00.476-.434c.13-.187.196-.43.196-.728 0-.29-.051-.518-.154-.686a.964.964 0 00-.406-.392 1.444 1.444 0 00-.588-.168 5.196 5.196 0 00-.672-.042h-2.128zm0 7h1.988c.252 0 .518-.014.798-.042.29-.037.55-.107.784-.21.233-.112.425-.266.574-.462.159-.196.238-.462.238-.798 0-.28-.06-.509-.182-.686a1.077 1.077 0 00-.448-.42 1.929 1.929 0 00-.63-.21 4.167 4.167 0 00-.686-.056h-.616l-1.204.014h-.616v2.87zm12.249.532a2.186 2.186 0 01-.966.77c-.401.159-.85.238-1.344.238a3.93 3.93 0 01-1.078-.14 2.536 2.536 0 01-.84-.42 2.134 2.134 0 01-.574-.714c-.14-.29-.21-.616-.21-.98 0-.401.08-.742.238-1.022.159-.29.373-.523.644-.7a3.08 3.08 0 01.98-.392c.373-.093.765-.14 1.176-.14h1.89c0-.541-.121-.961-.364-1.26-.243-.299-.667-.453-1.274-.462-.355 0-.663.06-.924.182a.934.934 0 00-.504.602h-1.638c.056-.392.182-.723.378-.994.205-.27.448-.495.728-.672a3.06 3.06 0 01.952-.378c.355-.075.71-.112 1.064-.112.457 0 .882.06 1.274.182.392.121.733.327 1.022.616.327.336.546.737.658 1.204.112.467.168.975.168 1.526V13h-1.386l-.07-.91zm-.084-2.366h-1.54c-.27 0-.541.023-.812.07a1.39 1.39 0 00-.7.294c-.187.15-.28.369-.28.658 0 .355.126.625.378.812.261.177.579.266.952.266.29 0 .555-.037.798-.112a1.57 1.57 0 00.644-.364c.177-.177.313-.397.406-.658.103-.27.154-.593.154-.966zm3.254-4.102h1.596v6.02h2.464v-6.02h1.582v6.02h2.478v-6.02h1.596V13h-9.716V5.622zM73.117 13h-1.483V5.622h1.596v5.068l3.752-5.068h1.442V13h-1.596V8.03c-.01.019-1.246 1.675-3.71 4.97zm-26.931 8.496c.588 0 1.106.093 1.554.28a3.17 3.17 0 011.134.784c.317.327.555.723.714 1.19.159.467.238.985.238 1.554a4.87 4.87 0 01-.238 1.568c-.15.457-.378.854-.686 1.19-.308.336-.69.593-1.148.77-.448.177-.97.266-1.568.266-.588 0-1.106-.089-1.554-.266a3.256 3.256 0 01-1.134-.77 3.468 3.468 0 01-.686-1.204 5.082 5.082 0 01-.224-1.554c0-.57.075-1.087.224-1.554.159-.467.392-.863.7-1.19a3.167 3.167 0 011.134-.784c.448-.187.961-.28 1.54-.28zm0 6.216c.364 0 .672-.06.924-.182.261-.13.471-.303.63-.518a2.03 2.03 0 00.364-.756c.084-.29.126-.602.126-.938a3.35 3.35 0 00-.126-.938 2.031 2.031 0 00-.364-.77 1.608 1.608 0 00-.63-.504c-.252-.121-.56-.182-.924-.182-.355 0-.663.06-.924.182-.252.121-.462.29-.63.504-.159.215-.28.471-.364.77-.075.29-.112.602-.112.938 0 .336.037.649.112.938.084.29.205.541.364.756.168.215.378.387.63.518.261.121.57.182.924.182zm10.844-6.09v1.386h-2.492V29h-1.582v-5.992h-2.492v-1.386h6.566zm5.762 3.43c.392.13.681.345.868.644.187.29.28.616.28.98v.056c0 .467-.093.854-.28 1.162a2.134 2.134 0 01-.756.742 3.102 3.102 0 01-1.008.364 6.02 6.02 0 01-1.092.098c-.364 0-.737-.033-1.12-.098a3.528 3.528 0 01-1.036-.378 2.404 2.404 0 01-.77-.7c-.205-.29-.322-.653-.35-1.092h1.54c.037.187.117.34.238.462.13.121.28.22.448.294.168.075.345.126.532.154.187.028.36.042.518.042.168 0 .35-.01.546-.028.196-.028.369-.075.518-.14a1.14 1.14 0 00.392-.294.792.792 0 00.154-.504c0-.355-.135-.593-.406-.714-.261-.121-.593-.182-.994-.182h-1.232v-1.26h1.106c.345 0 .64-.07.882-.21.243-.14.364-.383.364-.728a.655.655 0 00-.14-.434.847.847 0 00-.322-.28 1.305 1.305 0 00-.434-.126 2.452 2.452 0 00-.91 0 1.63 1.63 0 00-.476.126 1.1 1.1 0 00-.378.266.736.736 0 00-.182.434h-1.526c.037-.439.154-.798.35-1.078.196-.29.439-.518.728-.686.29-.168.607-.285.952-.35a5.789 5.789 0 011.05-.098c.345 0 .681.033 1.008.098.336.065.644.187.924.364s.495.392.644.644c.159.243.238.56.238.952 0 .355-.084.658-.252.91a1.69 1.69 0 01-.616.588zm2.566-3.43h1.61v2.492h1.33c.41 0 .794.037 1.148.112.355.075.658.205.91.392.262.177.467.415.616.714.15.299.224.672.224 1.12 0 .504-.093.924-.28 1.26a2.26 2.26 0 01-.728.784 2.989 2.989 0 01-1.008.392 5.626 5.626 0 01-1.106.112h-2.716v-7.378zM72.148 29v-7.378h1.582V29h-1.582zm-4.214-1.33c.206 0 .41-.014.616-.042.206-.037.388-.093.546-.168a.975.975 0 00.378-.35c.094-.15.14-.345.14-.588 0-.205-.037-.373-.112-.504a.744.744 0 00-.28-.308.928.928 0 00-.392-.168 3.663 3.663 0 00-.448-.056h-1.414v2.17l.966.014zm7.541-6.048h3.15c.327 0 .658.019.994.056.336.028.64.107.91.238.28.13.504.322.672.574.178.243.271.574.28.994 0 .327-.074.63-.224.91-.149.28-.387.509-.714.686.448.121.775.336.98.644.215.299.322.658.322 1.078 0 .392-.079.733-.238 1.022-.158.28-.368.509-.63.686a2.964 2.964 0 01-.91.378 5.13 5.13 0 01-1.092.112h-3.5v-7.378zm1.61 1.33v1.694h1.624c.234-.01.44-.042.616-.098a.976.976 0 00.448-.266c.122-.121.182-.294.182-.518 0-.196-.046-.345-.14-.448a.778.778 0 00-.322-.252 1.315 1.315 0 00-.448-.098 7.678 7.678 0 00-.448-.014h-1.512zm1.624 4.704c.187 0 .37-.01.546-.028.187-.019.35-.06.49-.126.15-.075.271-.168.364-.28a.759.759 0 00.14-.476c0-.355-.112-.593-.336-.714-.214-.121-.48-.182-.798-.182h-2.03v1.806h1.624zm4.614-6.034h1.61v2.492h1.33c.41 0 .793.037 1.148.112.355.075.658.205.91.392.261.177.467.415.616.714.15.299.224.672.224 1.12 0 .504-.093.924-.28 1.26a2.27 2.27 0 01-.728.784 2.99 2.99 0 01-1.008.392A5.627 5.627 0 0186.04 29h-2.716v-7.378zM90.113 29v-7.378h1.582V29h-1.582zM85.9 27.67c.205 0 .41-.014.616-.042.205-.037.387-.093.546-.168a.977.977 0 00.378-.35c.093-.15.14-.345.14-.588 0-.205-.037-.373-.112-.504a.746.746 0 00-.28-.308.928.928 0 00-.392-.168 3.668 3.668 0 00-.448-.056h-1.414v2.17l.966.014z" fill="#111"/></svg>