<svg width="40" height="40" fill="none" xmlns="http://www.w3.org/2000/svg"><path d="M31.667 31.667H8.333A3.333 3.333 0 015 28.333v-15m30 15v-15A3.333 3.333 0 0031.667 10h-4.31c-.442 0-.866-.176-1.178-.488l-1.87-1.869a3.334 3.334 0 00-2.356-.976h-3.906c-.884 0-1.732.351-2.357.976l-.69.69m9.714 16.381a6.667 6.667 0 11-9.428-9.428M5 5l30 30" stroke="#72767B" stroke-width="2" stroke-linecap="round" stroke-linejoin="round"/><path d="M30.084 15a.083.083 0 11-.167 0 .083.083 0 01.167 0" stroke="#72767B" stroke-width="2" stroke-linecap="round" stroke-linejoin="round"/></svg>