<?xml version="1.0" encoding="utf-8"?><svg viewBox="0 0 24 24" xmlns="http://www.w3.org/2000/svg" xmlns:xlink="http://www.w3.org/1999/xlink"><style>:root>svg{display:none}:root>svg:target{display:block}</style><svg fill="none" viewBox="0 0 20 20" id="icon-arrow-go" xmlns="http://www.w3.org/2000/svg"><path d="M11.459 15.208l4.583-4.583m0 0l-4.583-4.583m4.583 4.583H3.959" stroke="currentColor" stroke-width="1.5" stroke-linecap="round" stroke-linejoin="round"/></svg><svg fill="none" viewBox="0 0 24 24" id="icon-arrow-next" xmlns="http://www.w3.org/2000/svg"><path d="M10 16l4-4-4-4" stroke="currentColor" stroke-width="1.5" stroke-linecap="round" stroke-linejoin="round"/></svg><svg fill="none" viewBox="0 0 24 24" id="icon-arrow-prev" xmlns="http://www.w3.org/2000/svg"><path d="M14 16l-4-4 4-4" stroke="currentColor" stroke-width="1.5" stroke-linecap="round" stroke-linejoin="round"/></svg><svg fill="none" viewBox="0 0 24 24" id="icon-caret" xmlns="http://www.w3.org/2000/svg"><path d="M7 10l5 5 5-5" stroke="currentColor" stroke-width="2" stroke-linecap="round" stroke-linejoin="round"/></svg><svg fill="none" viewBox="0 0 24 24" id="icon-catalog" xmlns="http://www.w3.org/2000/svg"><path clip-rule="evenodd" d="M7.75 9.75H5a2 2 0 01-2-2V5a2 2 0 012-2h2.75a2 2 0 012 2v2.75a2 2 0 01-2 2zM19 9.75h-2.75a2 2 0 01-2-2V5a2 2 0 012-2H19a2 2 0 012 2v2.75a2 2 0 01-2 2zM7.75 21H5a2 2 0 01-2-2v-2.75a2 2 0 012-2h2.75a2 2 0 012 2V19a2 2 0 01-2 2zM19 21h-2.75a2 2 0 01-2-2v-2.75a2 2 0 012-2H19a2 2 0 012 2V19a2 2 0 01-2 2z" stroke="currentColor" stroke-width="1.5" stroke-linecap="round" stroke-linejoin="round"/></svg><svg fill="none" viewBox="0 0 24 24" id="icon-chat-plus" xmlns="http://www.w3.org/2000/svg"><path clip-rule="evenodd" d="M4.151 16.396A8.95 8.95 0 013 12a9 9 0 019-9 9 9 0 019 9 9 9 0 01-9 9 8.95 8.95 0 01-4.396-1.151L3 21l1.151-4.604z" stroke="currentColor" stroke-width="2" stroke-linecap="round" stroke-linejoin="round"/><path d="M12 15V9m-3 3h6" stroke="currentColor" stroke-width="2" stroke-linecap="round" stroke-linejoin="round"/></svg><svg fill="none" viewBox="0 0 20 20" id="icon-fb" xmlns="http://www.w3.org/2000/svg"><path d="M10.992 18.61v-8.108h2.722l.408-3.16h-3.13V5.323c0-.915.255-1.539 1.567-1.539h1.673V.957a22.428 22.428 0 00-2.438-.125c-2.413 0-4.065 1.473-4.065 4.178v2.33H5v3.16h2.729v8.11h3.263z" fill="currentColor"/></svg><svg fill="none" viewBox="0 0 24 24" id="icon-search" xmlns="http://www.w3.org/2000/svg"><path d="M21 21l-4.35-4.35M19 11a8 8 0 11-16 0 8 8 0 0116 0z" stroke="currentColor" stroke-width="2" stroke-linecap="round" stroke-linejoin="round"/></svg><svg fill="none" viewBox="0 0 21 20" id="icon-star" xmlns="http://www.w3.org/2000/svg"><path fill-rule="evenodd" clip-rule="evenodd" d="M9.49 2.675c.373-.897 1.646-.897 2.02 0l1.735 4.173 4.503.36c.97.078 1.363 1.288.624 1.921l-3.43 2.94 1.047 4.394c.226.946-.804 1.694-1.634 1.187L10.5 15.295 6.644 17.65c-.83.507-1.86-.242-1.634-1.187l1.048-4.395-3.43-2.939c-.74-.633-.347-1.843.623-1.92l4.504-.361L9.49 2.675z" fill="currentColor"/></svg><svg fill="none" viewBox="0 0 20 20" id="icon-star-filled" xmlns="http://www.w3.org/2000/svg"><path fill-rule="evenodd" clip-rule="evenodd" d="M8.99 2.675c.373-.897 1.646-.897 2.02 0l1.735 4.173 4.503.36c.97.078 1.363 1.288.624 1.921l-3.43 2.94 1.047 4.394c.226.946-.804 1.694-1.634 1.187L10 15.295 6.144 17.65c-.83.507-1.86-.242-1.634-1.187l1.048-4.395-3.43-2.939c-.74-.633-.347-1.843.623-1.92l4.504-.361L8.99 2.675z" fill="currentColor"/></svg><svg fill="none" viewBox="0 0 20 20" id="icon-vk" xmlns="http://www.w3.org/2000/svg"><path d="M1.513 5c-.582 0-.68.29-.68.602 0 .561.458 3.593 2.96 7.079 1.813 2.529 4.203 3.986 6.318 3.986 1.282 0 1.415-.333 1.415-.851v-2.312c0-.624.14-.726.549-.726.291 0 .883.194 2.028 1.555 1.322 1.57 1.56 2.334 2.319 2.334h2.001c.465 0 .733-.198.743-.584a1.23 1.23 0 00-.044-.33c-.149-.449-.826-1.543-1.674-2.586-.47-.579-.933-1.152-1.146-1.462-.145-.204-.2-.346-.194-.483.006-.143.08-.282.191-.474-.02 0 2.564-3.692 2.817-4.937a1 1 0 00.047-.325c-.012-.281-.203-.486-.65-.486h-1.999c-.504 0-.738.31-.874.623 0 0-1.245 2.612-2.682 4.335-.466.498-.703.486-.955.486-.134 0-.477-.165-.477-.622V5.79c0-.54-.13-.79-.558-.79h-3.55c-.312 0-.475.248-.475.498 0 .518.686.645.764 2.1v2.816c0 .684-.115.808-.367.808-.68 0-2.018-2.334-2.915-5.393C4.231 5.227 4.037 5 3.533 5h-2.02z" fill="currentColor"/></svg></svg>